<?xml version='1.0' encoding='utf-8'?>
<svg xmlns="http://www.w3.org/2000/svg" width="1078.91" height="1095" viewBox="0 0 285.46161 289.71875" version="1.1" id="svg8"> <defs id="defs2"/> <metadata id="metadata5"> </metadata> <g id="layer1" transform="translate(0,-7.281237)"> <g id="g5736" transform="matrix(1.0000021,0,0,1.0000021,278.34224,116.41629)" style="stroke-width:0.99999785"> <path id="path4354" d="M -158.75,32.41666 A 26.458332,26.458332 0 0 1 -132.29167,5.9583282 26.458332,26.458332 0 0 1 -105.83334,32.41666" style="opacity:1;fill:none;fill-opacity:1;stroke:#000000;stroke-width:15.87496662;stroke-linecap:round;stroke-linejoin:round;stroke-miterlimit:4;stroke-dasharray:none;stroke-opacity:1"/> <path id="path4350" d="m -185.20834,32.41666 c 0,-29.2250696 23.6916,-52.916665 52.91667,-52.916664 22.07262,1e-6 40.988823,13.5142252 48.925738,32.7198" style="opacity:1;fill:none;fill-opacity:1;stroke:#000000;stroke-width:15.87496662;stroke-linecap:round;stroke-linejoin:round;stroke-miterlimit:4;stroke-dasharray:none;stroke-opacity:1"/> <path id="path4346" d="m -211.66667,32.41666 c 0,-18.206067 6.12949,-34.9805147 16.43741,-48.372284 m 0,0 c 8.96974,-11.653247 21.10345,-20.745084 35.11554,-25.989943 m 27.82205,-5.012772 c 43.837603,0 79.374999,35.537398 79.374999,79.374999" style="opacity:1;fill:none;fill-opacity:1;stroke:#000000;stroke-width:15.87496662;stroke-linecap:round;stroke-linejoin:round;stroke-miterlimit:4;stroke-dasharray:none;stroke-opacity:1"/> <path id="path4342" d="m -236.40201,13.294826 c 9.00053,-49.322535 52.18911,-86.711493 104.11034,-86.711493 5.16341,0 10.28791,0.377322 15.33664,1.116695 m 0,0 c 12.4878,1.828805 24.512062,5.872628 35.514945,11.900408 m 23.983878,17.980763 c 19.847597,19.847597 30.997863,46.7667179 30.997863,74.835461" style="opacity:1;fill:none;fill-opacity:1;stroke:#000000;stroke-width:15.87496662;stroke-linecap:round;stroke-linejoin:round;stroke-miterlimit:4;stroke-dasharray:none;stroke-opacity:1"/> <path id="path4329" d="m -264.58333,32.41666 c 0,-27.4144161 8.50917,-53.951513 24.06488,-76.080201 m 0,0 c 4.35304,-6.192383 9.25787,-12.039553 14.68245,-17.464135 m 30.59573,-22.5938 c 21.82511,-14.899547 36.14675,-16.153532 62.9486,-16.153535 35.085935,-2e-6 68.734836,13.937835 93.544338,38.747335 m 0,0 c 19.078444,19.078442 31.7278479,43.384129 36.5538694,69.5508141" style="opacity:1;fill:none;fill-opacity:1;stroke:#000000;stroke-width:15.87496662;stroke-linecap:round;stroke-linejoin:round;stroke-miterlimit:4;stroke-dasharray:none;stroke-opacity:1"/> <path transform="scale(0.26458333)" id="path4509" d="m -1000.0001,122.51966 a 300,300 0 0 1 -18.7562,104.41231" style="opacity:1;fill:none;fill-opacity:1;stroke:#000000;stroke-width:59.99987411;stroke-linecap:round;stroke-linejoin:round;stroke-miterlimit:4;stroke-dasharray:none;stroke-opacity:1"/> <path transform="scale(0.26458333)" id="path4507" d="M -1000.0001,122.51966" style="opacity:1;fill:none;fill-opacity:1;stroke:#000000;stroke-width:59.99987411;stroke-linecap:round;stroke-linejoin:round;stroke-miterlimit:4;stroke-dasharray:none;stroke-opacity:1"/> <path transform="scale(0.26458333)" id="path4505" d="m -904.86202,184.69877 c -9.68542,61.54756 -33.66694,120.28311 -70.37508,171.33537" style="opacity:1;fill:none;fill-opacity:1;stroke:#000000;stroke-width:59.99987411;stroke-linecap:round;stroke-linejoin:round;stroke-miterlimit:4;stroke-dasharray:none;stroke-opacity:1"/> <path transform="scale(0.26458333)" id="path4503" d="M -900.00007,122.51966" style="opacity:1;fill:none;fill-opacity:1;stroke:#000000;stroke-width:59.99987411;stroke-linecap:round;stroke-linejoin:round;stroke-miterlimit:4;stroke-dasharray:none;stroke-opacity:1"/> <path transform="scale(0.26458333)" id="path4501" d="m -800,122.51966 c 0,55.84083 -9.34577,110.82497 -27.25098,162.81396 m -44.17522,94.72359 c -13.97714,23.25989 -29.90097,45.46906 -47.67816,66.37372" style="opacity:1;fill:none;fill-opacity:1;stroke:#000000;stroke-width:59.99987411;stroke-linecap:round;stroke-linejoin:round;stroke-miterlimit:4;stroke-dasharray:none;stroke-opacity:1"/> <path transform="scale(0.26458333)" id="path4499" d="M -800,122.51966" style="opacity:1;fill:none;fill-opacity:1;stroke:#000000;stroke-width:59.99987411;stroke-linecap:round;stroke-linejoin:round;stroke-miterlimit:4;stroke-dasharray:none;stroke-opacity:1"/> <path transform="scale(0.26458333)" id="path4497" d="m -700.00002,122.51965 a 599.99999,599.99999 0 0 1 0,1e-5 599.99999,599.99999 0 0 1 -150.25461,397.15121" style="opacity:1;fill:none;fill-opacity:1;stroke:#000000;stroke-width:59.99987411;stroke-linecap:round;stroke-linejoin:round;stroke-miterlimit:4;stroke-dasharray:none;stroke-opacity:1"/> <path transform="scale(0.26458333)" id="path4493" d="m -610.07249,240.85029 c -12.17628,70.99138 -35.228,139.60772 -68.25823,203.42804 m -38.61288,65.60071 c -15.84076,23.84315 -33.20036,46.79826 -52.02289,68.71444" style="opacity:1;fill:none;fill-opacity:1;stroke:#000000;stroke-width:59.99987411;stroke-linecap:round;stroke-linejoin:round;stroke-miterlimit:4;stroke-dasharray:none;stroke-opacity:1"/> <path transform="scale(0.26458333)" id="path4489" d="m -500.00008,122.51965 a 799.99996,799.99996 0 0 1 0,1e-5 799.99996,799.99996 0 0 1 -175.30636,499.75778" style="opacity:1;fill:none;fill-opacity:1;stroke:#000000;stroke-width:59.99987411;stroke-linecap:round;stroke-linejoin:round;stroke-miterlimit:4;stroke-dasharray:none;stroke-opacity:1"/> <path transform="scale(0.26458333)" id="path4485" d="m -400.00002,122.51965 v 1e-5 c 0,92.27264 -14.18217,183.40526 -41.56708,270.35705 m -40.981,116.42026 c -18.57646,34.69942 -63.48369,106.28105 -86.64378,138.50305" style="opacity:1;fill:none;fill-opacity:1;stroke:#000000;stroke-width:59.99987411;stroke-linecap:round;stroke-linejoin:round;stroke-miterlimit:4;stroke-dasharray:none;stroke-opacity:1"/> <path transform="scale(0.26458333)" id="path4481" d="m -302.02733,186.16911 c -10.48186,164.36372 -61.43291,323.95254 -148.74415,464.37605" style="opacity:1;fill:none;fill-opacity:1;stroke:#000000;stroke-width:59.99987411;stroke-linecap:round;stroke-linejoin:round;stroke-miterlimit:4;stroke-dasharray:none;stroke-opacity:1"/> <path transform="scale(0.26458333)" id="path4477" d="m -200.00008,122.51965 v 1e-5 c 0,15.25917 -0.31745,30.49934 -0.95008,45.71098 m -13.85489,134.15561 c -18.34066,110.65374 -53.55686,218.20705 -104.72657,318.81325" style="opacity:1;fill:none;fill-opacity:1;stroke:#000000;stroke-width:59.99987411;stroke-linecap:round;stroke-linejoin:round;stroke-miterlimit:4;stroke-dasharray:none;stroke-opacity:1"/> <path transform="scale(0.26458333)" id="path4473" d="m -100.00004,122.51966 a 1200,1200 0 0 1 -76.14569,420.65601" style="opacity:1;fill:none;fill-opacity:1;stroke:#000000;stroke-width:59.99987411;stroke-linecap:round;stroke-linejoin:round;stroke-miterlimit:4;stroke-dasharray:none;stroke-opacity:1"/> <path transform="scale(0.26458333)" id="path4469" d="m 0,122.51966 v 0 c 0,21.32542 -0.52473655,42.63937 -1.5725275,63.92261 m 0,0 c -2.6646902,54.12648 -8.7122945,108.0543 -18.1151455,161.46671" style="opacity:1;fill:none;fill-opacity:1;stroke:#000000;stroke-width:59.99987411;stroke-linecap:round;stroke-linejoin:round;stroke-miterlimit:4;stroke-dasharray:none;stroke-opacity:1"/> </g> </g> </svg>